<mxfile host="app.diagrams.net" modified="2022-09-28T16:40:16.101Z" agent="5.0 (Windows)" etag="oqfXOnZp3l2KtJwm389_" version="20.2.8" type="github">
  <diagram id="JUneV8Dul1QzyXfvgSnF" name="PÃ¡gina-1">
    <mxGraphModel dx="1342" dy="572" grid="1" gridSize="10" guides="1" tooltips="1" connect="1" arrows="1" fold="1" page="1" pageScale="1" pageWidth="827" pageHeight="1169" math="0" shadow="0">
      <root>
        <mxCell id="0" />
        <mxCell id="1" parent="0" />
        <mxCell id="4fevX-C3XEuvieK-_Q7G-1" value="" style="endArrow=none;html=1;rounded=0;" parent="1" edge="1">
          <mxGeometry width="50" height="50" relative="1" as="geometry">
            <mxPoint x="510" y="490" as="sourcePoint" />
            <mxPoint x="510" y="10" as="targetPoint" />
          </mxGeometry>
        </mxCell>
        <mxCell id="4fevX-C3XEuvieK-_Q7G-2" value="SAJ5" style="rounded=0;whiteSpace=wrap;html=1;" parent="1" vertex="1">
          <mxGeometry x="707" y="180" width="120" height="60" as="geometry" />
        </mxCell>
        <mxCell id="4fevX-C3XEuvieK-_Q7G-8" style="edgeStyle=orthogonalEdgeStyle;rounded=0;orthogonalLoop=1;jettySize=auto;html=1;" parent="1" source="4fevX-C3XEuvieK-_Q7G-3" target="4fevX-C3XEuvieK-_Q7G-5" edge="1">
          <mxGeometry relative="1" as="geometry">
            <Array as="points">
              <mxPoint x="300" y="100" />
              <mxPoint x="300" y="100" />
            </Array>
          </mxGeometry>
        </mxCell>
        <mxCell id="4fevX-C3XEuvieK-_Q7G-3" value="GP" style="rounded=0;whiteSpace=wrap;html=1;" parent="1" vertex="1">
          <mxGeometry x="60" y="80" width="120" height="60" as="geometry" />
        </mxCell>
        <mxCell id="txZfFoptIaE3DGpKEHIY-8" style="edgeStyle=orthogonalEdgeStyle;rounded=0;orthogonalLoop=1;jettySize=auto;html=1;" edge="1" parent="1" source="4fevX-C3XEuvieK-_Q7G-4" target="txZfFoptIaE3DGpKEHIY-1">
          <mxGeometry relative="1" as="geometry" />
        </mxCell>
        <mxCell id="txZfFoptIaE3DGpKEHIY-9" style="edgeStyle=orthogonalEdgeStyle;rounded=0;orthogonalLoop=1;jettySize=auto;html=1;" edge="1" parent="1" source="4fevX-C3XEuvieK-_Q7G-4" target="4fevX-C3XEuvieK-_Q7G-7">
          <mxGeometry relative="1" as="geometry">
            <Array as="points">
              <mxPoint x="120" y="410" />
            </Array>
          </mxGeometry>
        </mxCell>
        <mxCell id="4fevX-C3XEuvieK-_Q7G-4" value="GC" style="rounded=0;whiteSpace=wrap;html=1;" parent="1" vertex="1">
          <mxGeometry x="60" y="250" width="120" height="60" as="geometry" />
        </mxCell>
        <mxCell id="txZfFoptIaE3DGpKEHIY-6" style="edgeStyle=orthogonalEdgeStyle;rounded=0;orthogonalLoop=1;jettySize=auto;html=1;entryX=0.5;entryY=0;entryDx=0;entryDy=0;" edge="1" parent="1" source="4fevX-C3XEuvieK-_Q7G-5" target="4fevX-C3XEuvieK-_Q7G-2">
          <mxGeometry relative="1" as="geometry" />
        </mxCell>
        <mxCell id="4fevX-C3XEuvieK-_Q7G-5" value="Incluir Documentos EDIG" style="rounded=0;whiteSpace=wrap;html=1;" parent="1" vertex="1">
          <mxGeometry x="530" y="90" width="120" height="60" as="geometry" />
        </mxCell>
        <mxCell id="txZfFoptIaE3DGpKEHIY-7" style="edgeStyle=orthogonalEdgeStyle;rounded=0;orthogonalLoop=1;jettySize=auto;html=1;entryX=0.5;entryY=1;entryDx=0;entryDy=0;" edge="1" parent="1" source="txZfFoptIaE3DGpKEHIY-1" target="4fevX-C3XEuvieK-_Q7G-2">
          <mxGeometry relative="1" as="geometry" />
        </mxCell>
        <mxCell id="txZfFoptIaE3DGpKEHIY-1" value="Incluir Documentos EDT" style="rounded=0;whiteSpace=wrap;html=1;" vertex="1" parent="1">
          <mxGeometry x="530" y="260" width="130" height="60" as="geometry" />
        </mxCell>
        <mxCell id="4fevX-C3XEuvieK-_Q7G-7" value="Cadastrar Proc. &lt;br&gt;API BAHIA" style="rounded=0;whiteSpace=wrap;html=1;" parent="1" vertex="1">
          <mxGeometry x="530" y="370" width="120" height="60" as="geometry" />
        </mxCell>
      </root>
    </mxGraphModel>
  </diagram>
</mxfile>
